<svg id="visual" viewBox="0 0 1920 1080" width="1920" height="1080" xmlns="http://www.w3.org/2000/svg" xmlns:xlink="http://www.w3.org/1999/xlink" version="1.1"><rect x="0" y="0" width="1920" height="1080" fill="#001220"></rect><path d="M0 787L45.7 789.3C91.3 791.7 182.7 796.3 274.2 776.3C365.7 756.3 457.3 711.7 548.8 696C640.3 680.3 731.7 693.7 823 689.8C914.3 686 1005.7 665 1097 661.8C1188.3 658.7 1279.7 673.3 1371.2 691.3C1462.7 709.3 1554.3 730.7 1645.8 745.8C1737.3 761 1828.7 770 1874.3 774.5L1920 779L1920 1081L1874.3 1081C1828.7 1081 1737.3 1081 1645.8 1081C1554.3 1081 1462.7 1081 1371.2 1081C1279.7 1081 1188.3 1081 1097 1081C1005.7 1081 914.3 1081 823 1081C731.7 1081 640.3 1081 548.8 1081C457.3 1081 365.7 1081 274.2 1081C182.7 1081 91.3 1081 45.7 1081L0 1081Z" fill="#fb004e"></path><path d="M0 825L45.7 810.2C91.3 795.3 182.7 765.7 274.2 762.7C365.7 759.7 457.3 783.3 548.8 784.3C640.3 785.3 731.7 763.7 823 752.3C914.3 741 1005.7 740 1097 758C1188.3 776 1279.7 813 1371.2 827.2C1462.7 841.3 1554.3 832.7 1645.8 812.2C1737.3 791.7 1828.7 759.3 1874.3 743.2L1920 727L1920 1081L1874.3 1081C1828.7 1081 1737.3 1081 1645.8 1081C1554.3 1081 1462.7 1081 1371.2 1081C1279.7 1081 1188.3 1081 1097 1081C1005.7 1081 914.3 1081 823 1081C731.7 1081 640.3 1081 548.8 1081C457.3 1081 365.7 1081 274.2 1081C182.7 1081 91.3 1081 45.7 1081L0 1081Z" fill="#bb076f"></path><path d="M0 877L45.7 867C91.3 857 182.7 837 274.2 822.5C365.7 808 457.3 799 548.8 809.7C640.3 820.3 731.7 850.7 823 851.7C914.3 852.7 1005.7 824.3 1097 822.5C1188.3 820.7 1279.7 845.3 1371.2 865.3C1462.7 885.3 1554.3 900.7 1645.8 893.7C1737.3 886.7 1828.7 857.3 1874.3 842.7L1920 828L1920 1081L1874.3 1081C1828.7 1081 1737.3 1081 1645.8 1081C1554.3 1081 1462.7 1081 1371.2 1081C1279.7 1081 1188.3 1081 1097 1081C1005.7 1081 914.3 1081 823 1081C731.7 1081 640.3 1081 548.8 1081C457.3 1081 365.7 1081 274.2 1081C182.7 1081 91.3 1081 45.7 1081L0 1081Z" fill="#6c2770"></path><path d="M0 880L45.7 884.3C91.3 888.7 182.7 897.3 274.2 899.2C365.7 901 457.3 896 548.8 902.8C640.3 909.7 731.7 928.3 823 930.5C914.3 932.7 1005.7 918.3 1097 915.3C1188.3 912.3 1279.7 920.7 1371.2 919.8C1462.7 919 1554.3 909 1645.8 917C1737.3 925 1828.7 951 1874.3 964L1920 977L1920 1081L1874.3 1081C1828.7 1081 1737.3 1081 1645.8 1081C1554.3 1081 1462.7 1081 1371.2 1081C1279.7 1081 1188.3 1081 1097 1081C1005.7 1081 914.3 1081 823 1081C731.7 1081 640.3 1081 548.8 1081C457.3 1081 365.7 1081 274.2 1081C182.7 1081 91.3 1081 45.7 1081L0 1081Z" fill="#242452"></path><path d="M0 999L45.7 999.7C91.3 1000.3 182.7 1001.7 274.2 1006.2C365.7 1010.7 457.3 1018.3 548.8 1018C640.3 1017.7 731.7 1009.3 823 996C914.3 982.7 1005.7 964.3 1097 967.5C1188.3 970.7 1279.7 995.3 1371.2 1002C1462.7 1008.7 1554.3 997.3 1645.8 996.7C1737.3 996 1828.7 1006 1874.3 1011L1920 1016L1920 1081L1874.3 1081C1828.7 1081 1737.3 1081 1645.8 1081C1554.3 1081 1462.7 1081 1371.2 1081C1279.7 1081 1188.3 1081 1097 1081C1005.7 1081 914.3 1081 823 1081C731.7 1081 640.3 1081 548.8 1081C457.3 1081 365.7 1081 274.2 1081C182.7 1081 91.3 1081 45.7 1081L0 1081Z" fill="#001122"></path></svg>